<svg id="Group_1" data-name="Group 1" xmlns="http://www.w3.org/2000/svg" width="38.018" height="41" viewBox="0 0 38.018 41">
  <path id="Path_23" data-name="Path 23" d="M19.009,41c10.5,0,19.009-9.178,19.009-20.5S29.508,0,19.009,0,0,9.178,0,20.5,8.511,41,19.009,41Z" fill="#53acff"/>
  <path id="Path_24" data-name="Path 24" d="M14.3,25.6l9.794.139v8.57l-9.786-.08Z" fill="#ffebc8" fill-rule="evenodd"/>
  <path id="Path_25" data-name="Path 25" d="M32.9,34.494a19.038,19.038,0,0,1-6.316,4.814,17.813,17.813,0,0,1-16.8-.882A19.4,19.4,0,0,1,4.948,34.3l.79-2.057L14.3,28.118c0,3.009,1.132,4.081,4.9,4.142,4.657.075,4.885-1.066,4.885-4.166l7.868,4.167Z" fill="#f7da75" fill-rule="evenodd"/>
  <path id="Path_26" data-name="Path 26" d="M24.094,25.727v2.258C22.4,31.245,15.481,31.3,14.3,25.6Z" fill-rule="evenodd" opacity="0.11"/>
  <path id="Path_27" data-name="Path 27" d="M19.15,5.594c13.092,0,7.989,23.4,0,23.4C11.6,28.991,6.058,5.594,19.15,5.594Z" fill="#ffebc8" fill-rule="evenodd"/>
  <path id="Path_28" data-name="Path 28" d="M11.3,15.952c-1.889.889-.283,5.1.906,5.081A22.689,22.689,0,0,1,11.3,15.952Z" fill="#f9dca4" fill-rule="evenodd"/>
  <path id="Path_29" data-name="Path 29" d="M27.154,15.952c1.889.888.283,5.1-.905,5.081A22.708,22.708,0,0,0,27.154,15.952Z" fill="#f9dca4" fill-rule="evenodd"/>
  <path id="Path_30" data-name="Path 30" d="M26.7,19.627s.656-5.783-1.24-7.8c-.824,2.341-4.615,3.14-4.615,3.14a10.561,10.561,0,0,0,1.978-1.955c-1.016.474-4.23,1.9-7.142.77a14.716,14.716,0,0,0,2.225-1.777,9.183,9.183,0,0,1-5.192,1.156c-1.84,1.481-1.021,6.078-1.021,6.078C9.228,12.219,11.5,4.177,19.311,4.131,26.913,4.085,29.259,11.99,26.7,19.627Z" fill="#202020" fill-rule="evenodd"/>
  <path id="Path_31" data-name="Path 31" d="M14.306,27.983a10.9,10.9,0,0,0,4.9,4.277l-3.188,3.549-4.055-6.7Z" fill="#fff" fill-rule="evenodd"/>
  <path id="Path_32" data-name="Path 32" d="M24.09,27.983a10.9,10.9,0,0,1-4.9,4.277l3.187,3.549,4.055-6.7Z" fill="#fff" fill-rule="evenodd"/>
  <path id="Path_33" data-name="Path 33" d="M20.526,40.934q-.762.064-1.54.065-.587,0-1.166-.037l.634-5.81h1.483Z" fill="#3dbc93" fill-rule="evenodd"/>
  <path id="Path_34" data-name="Path 34" d="M17.515,34.138,19.2,32.269l1.683,1.869L19.2,36.007Z" fill="#3dbc93" fill-rule="evenodd"/>
</svg>
