<svg xmlns="http://www.w3.org/2000/svg" width="14.775" height="16.186" viewBox="0 0 14.775 16.186">
  <path id="Path_1" data-name="Path 1"
    d="M16.03,10.859,14.849,9.677a1.662,1.662,0,0,1-.443-1.071V6.279A5.289,5.289,0,0,0,8.865.739a5.251,5.251,0,0,0-5.54,5.54V8.865a.96.96,0,0,1-.259.628L1.7,10.859a.738.738,0,0,0-.222.517v2.659a.739.739,0,0,0,.739.739h4.1a2.586,2.586,0,0,0,5.1,0h4.1a.739.739,0,0,0,.739-.739V11.377A.739.739,0,0,0,16.03,10.859Z"
    transform="translate(-1.477 -0.739)" />
</svg>