<svg xmlns="http://www.w3.org/2000/svg" width="14" height="14" viewBox="0 0 14 14">
  <path id="cart" d="M1.51,1.743l-.019-.076H.637a.536.536,0,1,1,0-1.073h.777a1.174,1.174,0,0,1,1.139.888l.4,1.581.019.076h9.211A1.679,1.679,0,0,1,13.9,4.906a7.713,7.713,0,0,1-.619,2.708A2.66,2.66,0,0,1,10.827,9.3H4.509l.031.124L4.859,10.7l.019.076h5.95A1.807,1.807,0,1,1,9.12,11.982l.047-.133H6.119l.047.133a1.811,1.811,0,1,1-2.442-1.051L3.8,10.9l-.02-.082ZM4.222,8.155l.019.076h6.587a1.409,1.409,0,0,0,.882-.285,2.117,2.117,0,0,0,.6-.793h0a6.677,6.677,0,0,0,.516-2.317.607.607,0,0,0-.646-.623H3.235l.031.124Zm5.873,4.43a.733.733,0,1,0,.733-.732A.733.733,0,0,0,10.094,12.585Zm-6.369,0a.733.733,0,1,0,.733-.732A.733.733,0,0,0,3.725,12.585Z" transform="translate(0 -0.494)" fill="#fff" stroke="#202020" stroke-width="0.2"/>
</svg>
