<svg xmlns="http://www.w3.org/2000/svg" width="15.344" height="15.839" viewBox="0 0 15.344 15.839">
  <path id="Comm" d="M.99,5.692C.99,3.1,3.342.99,6.434.99a5.013,5.013,0,0,1,4.95,4.7,4.666,4.666,0,0,1-4.95,4.7,12.053,12.053,0,0,1-1.775-.136L2.97,11.384V9.63A4.951,4.951,0,0,1,.99,5.692Zm3.78,5.561a14.456,14.456,0,0,0,1.665.131,5.722,5.722,0,0,0,5.94-5.754C12.374,2.521,9.393,0,6.434,0,2.876,0,0,2.521,0,5.63a5.629,5.629,0,0,0,1.98,4.432v2.807Zm8.569-6.73c.009.142.025.282.025.426a6.467,6.467,0,0,1-.075.928,4.27,4.27,0,0,1,1.065,2.785A4.577,4.577,0,0,1,11.879,12.6v1.754L10.19,13.228a6.27,6.27,0,0,1-1.28.136,4.491,4.491,0,0,1-2.894-1.025c-.27.022-.542.035-.819.035-.2,0-.39-.014-.584-.025a5.691,5.691,0,0,0,4.3,1.881,7.334,7.334,0,0,0,1.185-.1l2.774,1.708V13.032A5.4,5.4,0,0,0,15.344,8.6,5.307,5.307,0,0,0,13.339,4.523ZM9.157,6.434a.742.742,0,1,0-.742-.742A.742.742,0,0,0,9.157,6.434Zm-5.94,0a.742.742,0,1,0-.742-.742A.742.742,0,0,0,3.217,6.434Zm2.97,0a.742.742,0,1,0-.742-.742A.742.742,0,0,0,6.187,6.434Z" fill="#fff" fill-rule="evenodd"/>
</svg>
