<svg xmlns="http://www.w3.org/2000/svg" width="15" height="10.772" viewBox="0 0 15 10.772">
  <g id="consume" transform="translate(0 0)">
    <path id="Path_40" data-name="Path 40" d="M14.9,1.151h0V9.619a1.1,1.1,0,0,1-1.151,1.053H1.251A1.1,1.1,0,0,1,.1,9.619V1.152A1.1,1.1,0,0,1,1.251.1h12.5A1.1,1.1,0,0,1,14.9,1.151ZM1.132,5.286h-.1V9.474a.25.25,0,0,0,.255.245H13.718a.254.254,0,0,0,.255-.245V5.286H1.132ZM1.032,2.3v.1H13.873V2.3h.095V1.3a.25.25,0,0,0-.255-.245H1.287a.254.254,0,0,0-.255.245Z" fill="#fff" stroke="#202020" stroke-width="0.2"/>
    <path id="Path_41" data-name="Path 41" d="M2.312,8.558V7.734H4.728v.823Z" fill="#fff" stroke="#202020" stroke-width="0.2"/>
    <path id="Path_42" data-name="Path 42" d="M5.946,8.558V7.734H9.53v.823Z" fill="#fff" stroke="#202020" stroke-width="0.2"/>
  </g>
</svg>
