<svg xmlns="http://www.w3.org/2000/svg" width="24.269" height="26" viewBox="0 0 24.269 26">
  <path id="document" d="M.23,2.6A2.706,2.706,0,0,1,3.031,0H18.352L24.5,5.708V23.4A2.706,2.706,0,0,1,21.7,26H3.031a2.706,2.706,0,0,1-2.8-2.6Zm11.2,4.333h-5.6V8.667h5.6Zm7.467,5.2H5.831v1.733H18.9Zm-8.765,6.774a2.215,2.215,0,0,0-1.55,1.3l-1.771-.548a4.029,4.029,0,0,1,2.837-2.426,4.57,4.57,0,0,1,4.128,1.06,5.42,5.42,0,0,1,1.163-.186,6.5,6.5,0,0,1,2.684.485c.569.22,1.121.5,1.585.733.148.075.288.145.415.207a3.1,3.1,0,0,0,1.141.4v1.733a4.778,4.778,0,0,1-2.009-.6c-.174-.085-.342-.17-.508-.253-.443-.223-.87-.439-1.342-.621a4.519,4.519,0,0,0-1.866-.354c-.091,0-.184.013-.28.026l0,.023a1.72,1.72,0,0,1-.523,1.359A4.328,4.328,0,0,1,11.948,22.3a3.936,3.936,0,0,1-1.146.042,1.77,1.77,0,0,1-.616-.192,1.088,1.088,0,0,1-.565-.75,1.11,1.11,0,0,1,.207-.833,2.3,2.3,0,0,1,.488-.488,8.7,8.7,0,0,1,1.557-.889l.05-.034A2.45,2.45,0,0,0,10.133,18.907Z" transform="translate(-0.23)" fill="#fff" fill-rule="evenodd"/>
</svg>
