<svg xmlns="http://www.w3.org/2000/svg" width="12.15" height="16.001" viewBox="0 0 12.15 16.001">
  <path id="energy" d="M.75,5.735H4.22l-.133-.226-2.358-4h0a.558.558,0,0,1,0-.574A.589.589,0,0,1,1.948.722a.618.618,0,0,1,.3-.078H7.5a.617.617,0,0,1,.317.087m-7.067,5,7.067-5m-7.067,5a.617.617,0,0,0-.325.092.585.585,0,0,0-.221.244.558.558,0,0,0-.05.318.567.567,0,0,0,.135.295h0L8.54,16.137h0a.605.605,0,0,0,.348.2.621.621,0,0,0,.4-.06.586.586,0,0,0,.268-.288.557.557,0,0,0,.02-.384h0L7.615,9.265l-.06-.194h3.7A.618.618,0,0,0,11.544,9a.59.59,0,0,0,.218-.2.558.558,0,0,0,.026-.558L8.038.965h0M.75,5.735,8.038.965M7.817.732a.586.586,0,0,1,.22.234M7.817.732l.22.234M3.869,5.435h.088v.15l-.129.076-.045-.076H.75a.767.767,0,0,0-.4.114.735.735,0,0,0-.277.307.708.708,0,0,0-.063.4Zm0,0L1.6,1.585Zm3.522,7.152-.256.143L2.254,7.138l-.217-.249H5.25a.618.618,0,0,0,.3-.078A.589.589,0,0,0,5.772,6.6a.558.558,0,0,0,0-.574h0l-2.358-4L3.281,1.8H7.128l.042.081,3,5.818.113.219H6.75a.619.619,0,0,0-.271.062.6.6,0,0,0-.212.172.566.566,0,0,0-.108.244.556.556,0,0,0,.016.264h0Z" transform="translate(0.15 -0.494)" fill="#fff" stroke="#202020" stroke-width="0.3"/>
</svg>
