<svg xmlns="http://www.w3.org/2000/svg" width="15.962" height="17.386" viewBox="0 0 15.962 17.386">
  <g id="finan" transform="translate(-0.114 -0.879)">
    <path id="Path_56" data-name="Path 56" d="M7.758,1.979A3.365,3.365,0,0,0,8.1,1.642a3.365,3.365,0,0,0,.337.337,3.366,3.366,0,0,0-.337.337A3.366,3.366,0,0,0,7.758,1.979Z" fill="none" stroke="#fff" stroke-width="1"/>
    <path id="Path_57" data-name="Path 57" d="M14.639,4.407a3.368,3.368,0,0,0,.337-.337,3.379,3.379,0,0,0,.337.337,3.378,3.378,0,0,0-.337.337A3.367,3.367,0,0,0,14.639,4.407Z" fill="none" stroke="#fff" stroke-width="1"/>
    <path id="Path_58" data-name="Path 58" d="M.877,4.407a3.367,3.367,0,0,0,.337-.337,3.366,3.366,0,0,0,.337.337,3.365,3.365,0,0,0-.337.337A3.366,3.366,0,0,0,.877,4.407Z" fill="none" stroke="#fff" stroke-width="1"/>
    <path id="Path_59" data-name="Path 59" d="M8.1,17.764a6.476,6.476,0,1,0-6.476-6.476A6.476,6.476,0,0,0,8.1,17.764Z" fill="none" stroke="#fff" stroke-miterlimit="10" stroke-width="1"/>
    <path id="Path_60" data-name="Path 60" d="M8.1,16.024a4.736,4.736,0,1,0-4.736-4.736A4.736,4.736,0,0,0,8.1,16.024Z" fill="none" stroke="#fff" stroke-linecap="round" stroke-linejoin="round" stroke-miterlimit="10" stroke-width="1"/>
    <path id="Path_61" data-name="Path 61" d="M8.1,4.812V6.431" fill="none" stroke="#fff" stroke-linecap="round" stroke-linejoin="round" stroke-miterlimit="10" stroke-width="1"/>
    <path id="Path_62" data-name="Path 62" d="M12.669,6.714,11.535,7.848" fill="none" stroke="#fff" stroke-linecap="round" stroke-linejoin="round" stroke-miterlimit="10" stroke-width="1"/>
    <path id="Path_63" data-name="Path 63" d="M14.572,11.288H12.953" fill="none" stroke="#fff" stroke-linecap="round" stroke-linejoin="round" stroke-miterlimit="10" stroke-width="1"/>
    <path id="Path_64" data-name="Path 64" d="M12.669,15.862l-1.133-1.133" fill="none" stroke="#fff" stroke-linecap="round" stroke-linejoin="round" stroke-miterlimit="10" stroke-width="1"/>
    <path id="Path_65" data-name="Path 65" d="M8.1,17.764V16.145" fill="none" stroke="#fff" stroke-linecap="round" stroke-linejoin="round" stroke-miterlimit="10" stroke-width="1"/>
    <path id="Path_66" data-name="Path 66" d="M3.521,15.862l1.133-1.133" fill="none" stroke="#fff" stroke-linecap="round" stroke-linejoin="round" stroke-miterlimit="10" stroke-width="1"/>
    <path id="Path_67" data-name="Path 67" d="M1.619,11.288H3.238" fill="none" stroke="#fff" stroke-linecap="round" stroke-linejoin="round" stroke-miterlimit="10" stroke-width="1"/>
    <path id="Path_68" data-name="Path 68" d="M3.521,6.714,4.655,7.848" fill="none" stroke="#fff" stroke-linecap="round" stroke-linejoin="round" stroke-miterlimit="10" stroke-width="1"/>
    <path id="Path_69" data-name="Path 69" d="M7.083,12.826l.2.2a.975.975,0,0,0,.729.283H8.1a1.012,1.012,0,0,0,0-2.024,1.012,1.012,0,1,1,0-2.024h.081a1.164,1.164,0,0,1,.729.283l.2.2" fill="none" stroke="#fff" stroke-linecap="round" stroke-linejoin="round" stroke-miterlimit="10" stroke-width="1"/>
    <path id="Path_70" data-name="Path 70" d="M8.1,9.264v-.81" fill="none" stroke="#fff" stroke-linecap="round" stroke-linejoin="round" stroke-miterlimit="10" stroke-width="1"/>
    <path id="Path_71" data-name="Path 71" d="M8.1,13.312v.809" fill="none" stroke="#fff" stroke-linecap="round" stroke-linejoin="round" stroke-miterlimit="10" stroke-width="1"/>
  </g>
</svg>
