<svg id="Group_1" data-name="Group 1" xmlns="http://www.w3.org/2000/svg" width="20.719" height="13.558" viewBox="0 0 20.719 13.558">
  <path id="Path_2" data-name="Path 2" d="M10.359,9.446a3.364,3.364,0,0,1-1.244-.237l-5.2-2.06V10.47c0,1.612,2.884,2.919,6.441,2.919S16.8,12.083,16.8,10.47V7.149l-5.2,2.06A3.364,3.364,0,0,1,10.359,9.446Z" fill="#fff"/>
  <path id="Path_3" data-name="Path 3" d="M20.365,3.783,11.25.17a2.419,2.419,0,0,0-1.783,0L.353,3.783a.559.559,0,0,0,0,1.039l1.276.506V8.946a1.074,1.074,0,0,0-.069,1.724l-.389,1.865A.849.849,0,0,0,2,13.558h.461a.849.849,0,0,0,.832-1.023L2.906,10.67a1.074,1.074,0,0,0-.069-1.724V5.807l6.6,2.617a2.5,2.5,0,0,0,1.841,0l9.086-3.6a.559.559,0,0,0,0-1.039Z" fill="#fff"/>
</svg>
