<svg id="heart" xmlns="http://www.w3.org/2000/svg" width="13.8" height="12" viewBox="0 0 13.8 12">
  <path id="Path_35" data-name="Path 35" d="M1.088,1.141a3.968,3.968,0,0,0,0,5.459l4.755,4.945a1.46,1.46,0,0,0,2.118,0c.861-.9,4.751-4.949,4.751-4.949a3.968,3.968,0,0,0,0-5.459,3.642,3.642,0,0,0-5.288,0L6.9,1.684l-.522-.543a3.642,3.642,0,0,0-5.288,0Zm.708.7a2.66,2.66,0,0,1,3.871,0l.876.911a.49.49,0,0,0,.708,0l.88-.916a2.661,2.661,0,0,1,3.871,0l0,.005A2.961,2.961,0,0,1,12,5.9s-3.89,4.053-4.751,4.949a.48.48,0,0,1-.7,0L1.8,5.9a2.961,2.961,0,0,1,0-4.066Z" fill="#fff" fill-rule="evenodd"/>
  <path id="Path_36" data-name="Path 36" d="M6.375,5.55H5.325A.492.492,0,0,0,4.8,6a.492.492,0,0,0,.525.45H6.375v.9A.492.492,0,0,0,6.9,7.8a.492.492,0,0,0,.525-.45v-.9H8.475A.492.492,0,0,0,9,6a.492.492,0,0,0-.525-.45H7.425v-.9A.492.492,0,0,0,6.9,4.2a.492.492,0,0,0-.525.45Z" fill="#fff" fill-rule="evenodd"/>
</svg>
