<svg xmlns="http://www.w3.org/2000/svg" width="31.698" height="23" viewBox="0 0 31.698 23">
  <g id="high-risk" transform="translate(-0.914)">
    <path id="Path_15" data-name="Path 15" d="M31.783,0H1.561A.649.649,0,0,0,.914.709V22.274A.665.665,0,0,0,1.561,23H31.783a.823.823,0,0,0,.828-.727V.709A.808.808,0,0,0,31.783,0Zm-.658,21.592H2.4V20.184H31.126Zm0-2.816H2.4V17.367H31.126Zm0-2.816H2.4V1.408H31.126Z" fill="#fff"/>
    <path id="Path_16" data-name="Path 16" d="M4.29,2.562a.8.8,0,0,0-1.05,0,.676.676,0,0,0,0,1,.771.771,0,0,0,1.05,0,.677.677,0,0,0,0-1Z" fill="#fff"/>
    <path id="Path_17" data-name="Path 17" d="M29.848,2.562a.8.8,0,0,0-1.05,0,.676.676,0,0,0,0,1,.771.771,0,0,0,1.05,0,.678.678,0,0,0,0-1Z" fill="#fff"/>
    <path id="Path_18" data-name="Path 18" d="M4.29,13.832a.8.8,0,0,0-1.05,0,.676.676,0,0,0,0,1,.77.77,0,0,0,1.05,0,.677.677,0,0,0,0-1Z" fill="#fff"/>
    <path id="Path_19" data-name="Path 19" d="M29.848,14.067a.8.8,0,0,0-1.05,0,.676.676,0,0,0,0,1,.77.77,0,0,0,1.05,0,.678.678,0,0,0,0-1Z" fill="#fff"/>
    <path id="Path_20" data-name="Path 20" d="M29.357,4.78a2.032,2.032,0,0,1-2.08-1.959.261.261,0,0,0-.265-.239H6.075a.245.245,0,0,0-.248.239,1.962,1.962,0,0,1-2,1.957c-.137,0-.187.107-.187.237v7.121c0,.13.05.235.187.235a1.983,1.983,0,0,1,2.032,1.95.213.213,0,0,0,.217.231H27.013a.238.238,0,0,0,.248-.231,2.043,2.043,0,0,1,2.1-1.952.274.274,0,0,0,.282-.233V5.014A.275.275,0,0,0,29.357,4.78ZM8.019,10.073a1.657,1.657,0,0,1-1.7-1.61,1.656,1.656,0,0,1,1.7-1.61,1.657,1.657,0,0,1,1.7,1.61A1.657,1.657,0,0,1,8.019,10.073Zm11.86.913a3.784,3.784,0,0,0-2.126-.809V9.369a2.8,2.8,0,0,0,.715-2.1c0-1.469-.789-1.858-1.78-1.858s-1.822.389-1.822,1.858a4.423,4.423,0,0,0,.658,2.1v.808a3.518,3.518,0,0,0-2.1.854,5.405,5.405,0,0,1-.616-2.573c0-2.588,1.731-4.686,3.857-4.686S20.5,5.869,20.5,8.457A5.424,5.424,0,0,1,19.879,10.986Zm5.516-.913a1.657,1.657,0,0,1-1.7-1.61,1.7,1.7,0,0,1,3.4,0A1.657,1.657,0,0,1,25.4,10.073Z" fill="#fff"/>
  </g>
</svg>
