<svg xmlns="http://www.w3.org/2000/svg" width="14.151" height="14" viewBox="0 0 14.151 14">
  <g id="indust" transform="translate(0 -0.764)">
    <path id="Path_51" data-name="Path 51" d="M10.189,5.109,9.9,10.935,7.74,9.63H5.648V4.4L2.135,1.318V3.024L0,1.389V14.764H13.006l-.474-9.655ZM4.863,13.98H.785V12.712H3.272v-.785H.785V10.5H3.272V9.712H.785V8.282H3.272V7.5H.785V6.067H3.272V5.283H.785v-2.3L2.919,4.614V3.049l1.943,1.7Zm4.891,0h-4.1V10.415H7.522l2.337,1.41Zm.786,0,.4-8.086h.85l.4,8.086Z" fill="#fff"/>
    <path id="Path_52" data-name="Path 52" d="M13.707,1.209a1.517,1.517,0,0,0-2.557.757,1.321,1.321,0,1,0,1.8,1.8,1.517,1.517,0,0,0,.757-2.557ZM13.152,2.8a.73.73,0,0,1-.486.214l-.271.012-.085.258a.536.536,0,0,1-.888.211.537.537,0,0,1,0-.758.53.53,0,0,1,.211-.13l.258-.085L11.9,2.25a.732.732,0,1,1,1.25.55Z" fill="#fff"/>
  </g>
</svg>
