<svg xmlns="http://www.w3.org/2000/svg" width="15" height="16" viewBox="0 0 15 16">
  <path id="it" d="M15,7.189l-1.8-.344a1,1,0,0,0-.543-.493c-.031-.011-.062-.021-.093-.03L10.549,2.195a1.56,1.56,0,0,0,.027-1.3A1.469,1.469,0,0,0,8.6.142L1.078,3.318a1.9,1.9,0,0,0-.92,2.464,1.793,1.793,0,0,0,.82.879l2.738,6.991.116.305A2.82,2.82,0,0,0,2.97,16H8.345a2.737,2.737,0,0,0-2.688-2.783H5.643l-.192-.545.03.008-.053-.072L3.234,6.364l0-.026L9.274,3.206,11.4,6.945c0,.008-.007.016-.009.024a1.066,1.066,0,0,0-.039.145L9.657,8.181l.569.537.824,1.822.841.162-.342-2.519.129-.08A.971.971,0,0,0,13.142,7.9l.616,2.449.735-.453.147-1.785.07.013L15,7.191ZM1.58,3.794A1.194,1.194,0,0,1,2.947,4.808a1.227,1.227,0,0,1-.979,1.416A1.194,1.194,0,0,1,.6,5.21,1.227,1.227,0,0,1,1.58,3.794ZM8.341,1.673A.917.917,0,0,1,9.072.616a.88.88,0,0,1,.935.486c.01.02.019.04.028.061l0,.006c.008.02.016.04.023.062v0c.007.02.012.041.017.062l0,.013c.005.021.009.043.012.064a.953.953,0,0,1,0,.277.907.907,0,0,1-.735.781l-.043.006-.014,0-.029,0h-.1l-.026,0-.016,0-.028,0-.014,0-.04-.007h0l-.04-.009L9,2.415l-.026-.007-.016,0L8.934,2.4,8.917,2.39l-.023-.009-.016-.006-.023-.01-.015-.007-.024-.012L8.806,2.34l-.035-.02h0A.92.92,0,0,1,8.341,1.673Z" fill="#fff"/>
</svg>
