<svg xmlns="http://www.w3.org/2000/svg" width="31.655" height="17.344" viewBox="0 0 31.655 17.344">
  <g id="low-risk" transform="translate(-0.079)">
    <path id="Path_12" data-name="Path 12" d="M30.992,0H.821A.723.723,0,0,0,.079.7V16.641a.723.723,0,0,0,.742.7H30.992a.724.724,0,0,0,.742-.7V.7A.723.723,0,0,0,30.992,0ZM30.25,15.938H1.563V1.406H30.25Z" fill="#fff"/>
    <path id="Path_13" data-name="Path 13" d="M16.9,10.132V9.325a2.791,2.791,0,0,0,.714-2.1c0-1.467-.788-1.856-1.778-1.856s-1.82.389-1.82,1.856a4.417,4.417,0,0,0,.657,2.1v.806c-.989.14-2.226.513-2.226,1.567V13.18L14.209,14.3H18.7l.629-2.547C19.331,10.7,17.885,10.272,16.9,10.132Z" fill="#fff"/>
    <path id="Path_14" data-name="Path 14" d="M28.484,4.742A2.017,2.017,0,0,1,26.407,2.8a.248.248,0,0,0-.265-.223H5.233a.232.232,0,0,0-.247.223,1.953,1.953,0,0,1-2,1.946c-.137,0-.187.1-.187.229v7.111c0,.13.05.234.187.234a1.993,1.993,0,0,1,2.029,1.963.226.226,0,0,0,.217.246h20.91a.25.25,0,0,0,.247-.246,2.046,2.046,0,0,1,2.094-1.957.279.279,0,0,0,.282-.24V4.976A.275.275,0,0,0,28.484,4.742ZM7.167,10.277A1.674,1.674,0,0,1,5.449,8.649,1.674,1.674,0,0,1,7.167,7.021,1.674,1.674,0,0,1,8.884,8.649,1.674,1.674,0,0,1,7.167,10.277Zm8.65,2.817c-2.123,0-3.843-2.095-3.843-4.679s1.72-4.679,3.843-4.679S19.66,5.83,19.66,8.414,17.939,13.094,15.817,13.094Zm8.637-2.817a1.675,1.675,0,0,1-1.717-1.628,1.72,1.72,0,0,1,3.435,0A1.674,1.674,0,0,1,24.454,10.277Z" fill="#fff"/>
  </g>
</svg>
