<svg xmlns="http://www.w3.org/2000/svg" width="14" height="14" viewBox="0 0 14 14">
  <path id="material" d="M8.172,1.177a1.348,1.348,0,0,0-2.344,0L4.294,3.871a.454.454,0,0,0,.167.618.449.449,0,0,0,.615-.168l1.533-2.7a.449.449,0,0,1,.781,0L9.677,5.644l-1.131-.3a.45.45,0,0,0-.552.319.452.452,0,0,0,.318.554l2.174.585a.449.449,0,0,0,.474-.161.453.453,0,0,0,.078-.158l.582-2.184a.452.452,0,0,0-.318-.554.449.449,0,0,0-.474.161.453.453,0,0,0-.078.158l-.3,1.123Zm-5.7,5.892-1.13.3a.45.45,0,0,1-.552-.319A.452.452,0,0,1,1.111,6.5l2.175-.585a.45.45,0,0,1,.551.319l.582,2.184a.452.452,0,0,1-.318.554.45.45,0,0,1-.551-.32L3.25,7.53.959,11.557a.452.452,0,0,0,.391.676H4.3a.452.452,0,0,1,0,.9H1.35a1.349,1.349,0,0,1-1.167-.676,1.361,1.361,0,0,1,0-1.353Zm9.8,1.323a.45.45,0,0,0-.272-.22.449.449,0,0,0-.481.16.454.454,0,0,0-.028.508l1.545,2.716a.452.452,0,0,1-.391.676H7.636l.582-.584a.451.451,0,1,0-.637-.639l-1.35,1.356a.452.452,0,0,0,0,.639l1.35,1.356a.451.451,0,0,0,.637-.639l-.582-.585H12.65a1.349,1.349,0,0,0,1.168-.676,1.361,1.361,0,0,0,0-1.353Z" transform="translate(0 -0.494)" fill="#fff"/>
</svg>
