<svg xmlns="http://www.w3.org/2000/svg" width="25.324" height="20" viewBox="0 0 25.324 20">
  <path id="percentage-change" d="M1.7,11.548l1.726.393,1.3-1.873-2.469-.56a1.234,1.234,0,0,0-.867.118,1.064,1.064,0,0,0-.522.647.978.978,0,0,0,.129.8A1.142,1.142,0,0,0,1.7,11.548Zm22.525.3-5.651,4.67L11.927,11.8a1.193,1.193,0,0,0-.428-.188l-.884-.2-1.3,1.873,1.393.317,7.213,5.125a1.228,1.228,0,0,0,.749.22,1.216,1.216,0,0,0,.73-.27l6.366-5.264a1.059,1.059,0,0,0,.268-.329.968.968,0,0,0,.044-.8,1.035,1.035,0,0,0-.231-.352,1.2,1.2,0,0,0-.8-.345A1.219,1.219,0,0,0,24.22,11.851Zm-12.4-5.13L18,10.359a1.242,1.242,0,0,0,.848.147,1.168,1.168,0,0,0,.722-.433l6.365-8.421a1.008,1.008,0,0,0,.179-.377.967.967,0,0,0,.007-.411,1,1,0,0,0-.166-.382,1.1,1.1,0,0,0-.313-.294,1.235,1.235,0,0,0-.861-.171,1.166,1.166,0,0,0-.741.438L18.312,8.037,12.087,4.378a1.245,1.245,0,0,0-.871-.143,1.161,1.161,0,0,0-.723.465L1,18.383a.977.977,0,0,0-.04,1.074,1.1,1.1,0,0,0,.423.4,1.258,1.258,0,0,0,1.141.015,1.117,1.117,0,0,0,.418-.359Z" transform="translate(-0.82)" fill="#fff"/>
</svg>
