<svg xmlns="http://www.w3.org/2000/svg" width="25.423" height="18" viewBox="0 0 25.423 18">
  <path id="portfolio"
    d="M5.033,2.571H.893a.927.927,0,0,0-.887,1.08L2.012,16.5S4.39,7.033,4.853,4.757a1.2,1.2,0,0,1,1.26-.9h6.634s-.9-2.674-.99-2.97C11.6.321,11.32,0,10.754,0H6.5A1.047,1.047,0,0,0,5.47.823C5.354,1.337,5.033,2.571,5.033,2.571Zm6.274,0H6.164S6.7,1.286,7.283,1.286h2.739C10.639,1.286,11.307,2.571,11.307,2.571ZM3.323,17.036A1.957,1.957,0,0,1,1.7,18H21.927a1.274,1.274,0,0,0,1.324-1.067c.566-2.816,2.16-10.851,2.16-10.851a.779.779,0,0,0-.8-.939H20.462V3.253a.886.886,0,0,0-.849-.681H14.779a1.552,1.552,0,0,0-1.119.746l-.913,1.826H7.077a.868.868,0,0,0-.887.643S4.146,14.4,3.979,15.21A5.247,5.247,0,0,1,3.323,17.036ZM19.664,5.143H14.033s.746-1.286,1.453-1.286H18.43C19.343,3.857,19.664,5.143,19.664,5.143Z"
    fill="#5d5d5d" />
</svg>