<svg xmlns="http://www.w3.org/2000/svg" width="32.71" height="30.218" viewBox="0 0 32.71 30.218">
  <g id="price-tag" transform="translate(-0.096)">
    <path id="Path_9" data-name="Path 9" d="M16.3,12.427a1.443,1.443,0,0,0-.423.789,1.825,1.825,0,0,0,.149,1.034l2.211-2.1A1.8,1.8,0,0,0,17.2,12,1.64,1.64,0,0,0,16.3,12.427Z" fill="#fff"/>
    <path id="Path_10" data-name="Path 10" d="M32.477.263c-.282-.27-1.686-.219-2.95-.22L24.14.035a26.8,26.8,0,0,0-3.689.054,2.526,2.526,0,0,0-1.235.6L.97,17.663a2.377,2.377,0,0,0,.071,3.708L9.57,29.458a2.679,2.679,0,0,0,3.747-.055L31.425,12.244A5.708,5.708,0,0,0,32.8,9.427l0-6.391A6.387,6.387,0,0,0,32.477.263ZM20.717,16.078l-1.828-1.332a1.674,1.674,0,0,0,.259-1.693l-2.5,2.364a5.315,5.315,0,0,1,1.016,3,3.351,3.351,0,0,1-1.139,2.133,4.12,4.12,0,0,1-2.646,1.186,4.5,4.5,0,0,1-2.914-.926l-1.2,1.134-.928-.879,1.16-1.1a3.835,3.835,0,0,1-.966-2.484A4.39,4.39,0,0,1,10.1,14.8l1.842,1.41a2.769,2.769,0,0,0-.5,1.2,2.218,2.218,0,0,0,.089,1.1l2.677-2.535a4.494,4.494,0,0,1-.753-2.766,3.536,3.536,0,0,1,1.175-2.22,3.6,3.6,0,0,1,2.417-1.038,3.907,3.907,0,0,1,2.581.888l.633-.6.926.878-.633.6a3.593,3.593,0,0,1,.923,2.187A3.47,3.47,0,0,1,20.717,16.078Zm8.805-10.2a2.116,2.116,0,0,1-2.884,0,1.862,1.862,0,0,1,0-2.732,2.116,2.116,0,0,1,2.884,0A1.86,1.86,0,0,1,29.523,5.881Z" fill="#fff"/>
    <path id="Path_11" data-name="Path 11" d="M12.372,19.472a1.92,1.92,0,0,0,1.221.316,1.794,1.794,0,0,0,1.135-.5,1.476,1.476,0,0,0,.483-.935,2.084,2.084,0,0,0-.349-1.237Z" fill="#fff"/>
  </g>
</svg>
