<svg xmlns="http://www.w3.org/2000/svg" width="16.748" height="15" viewBox="0 0 16.748 15">
  <g id="realState" transform="translate(0 -0.035)">
    <path id="Path_44" data-name="Path 44" d="M16.632,7.081,8.592.116a.334.334,0,0,0-.437,0L.115,7.081a.334.334,0,0,0,.218.586H2.355V14.7a.334.334,0,0,0,.334.334h11.37a.334.334,0,0,0,.334-.334V7.667h2.021a.334.334,0,0,0,.218-.586ZM14.059,7a.334.334,0,0,0-.334.334v7.034H3.022V7.334A.334.334,0,0,0,2.689,7H1.228L8.374.81,15.519,7Z" fill="#fff"/>
    <path id="Path_45" data-name="Path 45" d="M13.562,5.992,11.38,4.074a.334.334,0,1,0-.441.5l2.182,1.918a.334.334,0,0,0,.441-.5Z" fill="#fff"/>
    <path id="Path_46" data-name="Path 46" d="M10.608,3.4l-.1-.089a.334.334,0,1,0-.441.5l.1.089a.334.334,0,1,0,.441-.5Z" fill="#fff"/>
    <path id="Path_47" data-name="Path 47" d="M12.313,11.5,8.834,8.017A2.123,2.123,0,1,0,7.227,9.624l.232.232a.336.336,0,0,0,.251.1l.025.107a.334.334,0,0,0,.089.161l.326.326a.333.333,0,0,0,.236.1h.1v.1a.334.334,0,0,0,.1.236l.254.254a.334.334,0,0,0,.236.1h.423v.423a.334.334,0,0,0,.1.236l.522.522a.333.333,0,0,0,.236.1h.193V12.8a.333.333,0,0,0,.1.236l.472.472a.334.334,0,0,0,.472,0l.729-.729a.334.334,0,0,0,.1-.236v-.811A.334.334,0,0,0,12.313,11.5Zm-.569.909-.4.4-.138-.138h0v-.388a.334.334,0,0,0-.334-.334h-.388l-.326-.326V11a.334.334,0,0,0-.334-.334H9.209L9.15,10.6v-.292a.334.334,0,0,0-.334-.334H8.524l-.161-.161-.116-.5a.334.334,0,0,0-.553-.168l-.133-.133a.334.334,0,0,0-.341-.081,1.456,1.456,0,1,1,.923-.923.334.334,0,0,0,.081.341l3.519,3.519Z" fill="#fff"/>
    <path id="Path_48" data-name="Path 48" d="M6.825,7.132l-.184-.183a.334.334,0,0,0-.472.472l.184.183a.334.334,0,0,0,.472-.472Z" fill="#fff"/>
  </g>
</svg>
