<svg xmlns="http://www.w3.org/2000/svg" width="23.883" height="20" viewBox="0 0 23.883 20">
  <g id="settings" transform="translate(0)">
    <path id="Path_4" data-name="Path 4"
      d="M14.159,13.118l-1.168-.259a5.674,5.674,0,0,0-.5-2.256l.9-.731a.5.5,0,0,0,.074-.7l-1.132-1.4a.5.5,0,0,0-.7-.074l-.879.713A5.67,5.67,0,0,0,8.674,7.4V6.284a.5.5,0,0,0-.5-.5h-1.8a.5.5,0,0,0-.5.5V7.4A5.669,5.669,0,0,0,3.757,8.439l-.888-.706a.5.5,0,0,0-.7.08L1.045,9.222a.5.5,0,0,0,.08.7l.912.725a5.678,5.678,0,0,0-.48,2.257l-1.169.27a.5.5,0,0,0-.375.6l.4,1.754a.5.5,0,0,0,.6.375l1.206-.278A5.712,5.712,0,0,0,3.65,17.369l-.544,1.14a.5.5,0,0,0,.236.668l1.624.775a.5.5,0,0,0,.668-.236l.551-1.155a5.785,5.785,0,0,0,2.224-.008l.56,1.148a.5.5,0,0,0,.67.231l1.617-.789a.5.5,0,0,0,.231-.67l-.553-1.133a5.706,5.706,0,0,0,1.413-1.753l1.205.267a.5.5,0,0,0,.6-.381l.39-1.757a.5.5,0,0,0-.38-.6Zm-4.677-.172a2.207,2.207,0,1,1-2.208-2.207A2.21,2.21,0,0,1,9.482,12.946Z" />
    <path id="Path_5" data-name="Path 5"
      d="M15.516,8.829a.5.5,0,0,0,.453-.285l.264-.553a3.612,3.612,0,0,0,1.39-.005l.268.55a.5.5,0,0,0,.67.231l.674-.329a.5.5,0,0,0,.23-.67l-.264-.54a3.56,3.56,0,0,0,.883-1.1l.571.126a.5.5,0,0,0,.6-.381l.162-.732a.5.5,0,0,0-.381-.6l-.547-.121a3.541,3.541,0,0,0-.313-1.411l.419-.339a.5.5,0,0,0,.073-.7L20.2,1.388a.5.5,0,0,0-.7-.074l-.4.327a3.539,3.539,0,0,0-1.3-.629V.5a.5.5,0,0,0-.5-.5h-.75a.5.5,0,0,0-.5.5v.511a3.538,3.538,0,0,0-1.323.649L14.3,1.336a.5.5,0,0,0-.7.08L13.133,2a.5.5,0,0,0,.08.7l.423.337a3.557,3.557,0,0,0-.3,1.412l-.548.127a.5.5,0,0,0-.375.6l.169.731a.5.5,0,0,0,.6.375l.571-.132a3.574,3.574,0,0,0,.892,1.088l-.259.544a.5.5,0,0,0,.236.668l.677.323A.506.506,0,0,0,15.516,8.829Zm.017-4.349a1.38,1.38,0,1,1,1.381,1.38A1.382,1.382,0,0,1,15.533,4.48Z" />
    <path id="Path_6" data-name="Path 6"
      d="M23.491,14.118,22.945,14a3.535,3.535,0,0,0-.313-1.411l.42-.339a.5.5,0,0,0,.073-.7l-.472-.583a.5.5,0,0,0-.7-.074l-.4.327a3.546,3.546,0,0,0-1.3-.63v-.511a.5.5,0,0,0-.5-.5h-.75a.5.5,0,0,0-.5.5v.511a3.527,3.527,0,0,0-1.323.649l-.409-.325a.5.5,0,0,0-.7.08l-.467.587a.5.5,0,0,0,.08.7l.424.337a3.552,3.552,0,0,0-.3,1.412l-.548.127a.5.5,0,0,0-.375.6l.169.731a.5.5,0,0,0,.6.375l.571-.132a3.572,3.572,0,0,0,.891,1.088l-.259.543a.5.5,0,0,0,.236.668l.677.323a.5.5,0,0,0,.668-.237l.264-.553a3.6,3.6,0,0,0,1.391-.005l.268.549a.5.5,0,0,0,.67.231l.674-.329a.5.5,0,0,0,.231-.67l-.264-.54a3.555,3.555,0,0,0,.883-1.1l.571.127a.5.5,0,0,0,.6-.381l.162-.732A.5.5,0,0,0,23.491,14.118Zm-2.741-.067a1.38,1.38,0,1,1-1.38-1.38A1.382,1.382,0,0,1,20.75,14.052Z" />
  </g>
</svg>