<svg xmlns="http://www.w3.org/2000/svg" width="17.36" height="15" viewBox="0 0 17.36 15">
  <g id="util" transform="translate(0 -0.764)">
    <path id="Path_53" data-name="Path 53" d="M11.547,5.931l1.645.591a.334.334,0,0,0,.428-.2l.4-1.107a.335.335,0,0,0-.2-.428L12.17,4.194a.335.335,0,0,0-.428.2l-.4,1.107a.335.335,0,0,0,.2.428Zm.712-.994,1.015.365-.172.477-1.015-.365Z" fill="#fff"/>
    <path id="Path_54" data-name="Path 54" d="M4.092,14.727a.351.351,0,1,0-.351-.351A.351.351,0,0,0,4.092,14.727Z" fill="#fff"/>
    <path id="Path_55" data-name="Path 55" d="M11.431,8.816l.093-.093A4.75,4.75,0,0,1,13.048,7.7l2.193-.922s.6-.257.729-.332a2.547,2.547,0,0,0,.54-.425,2.909,2.909,0,0,0,.124-3.977.335.335,0,0,0-.564.105L15.27,4.3l-.6-.221.84-2.287a.335.335,0,0,0-.361-.447,2.9,2.9,0,0,0-2.375,2.032L11.4,2.866a.335.335,0,0,0-.445.253l-.318,1.719a4.749,4.749,0,0,1-1.013,2.17L6.686,4.071l.209-.209a.335.335,0,0,0,0-.473l-.221-.221a2.111,2.111,0,0,1,2.159-.743.335.335,0,0,0,.326-.538,2.993,2.993,0,0,0-1.092-.849,3.047,3.047,0,0,0-3.145.378l-.183-.183a.335.335,0,0,0-.473,0L2.234,3.265a.335.335,0,0,0,0,.471c.116.118.061.378-.117.557s-.438.233-.557.117a.335.335,0,0,0-.471,0L.1,5.4a.335.335,0,0,0,0,.473L2.254,8.03a.335.335,0,0,0,.473,0l.989-.989a.335.335,0,0,0,0-.47c-.115-.118-.06-.378.118-.556s.438-.233.556-.118a.335.335,0,0,0,.47,0l.185-.185L8,8.662,3.149,13.514a1.267,1.267,0,0,0,1.792,1.792l4.852-4.852L15,15.666a.334.334,0,0,0,.473,0L16.643,14.5a.335.335,0,0,0,0-.473Zm3.23-6.643-.615,1.673-.638-.236A2.23,2.23,0,0,1,14.661,2.173ZM7.787,1.647q.081.037.157.079A2.7,2.7,0,0,0,6.2,2.694l-.8-.8A2.374,2.374,0,0,1,7.787,1.647Zm-3.285.3L6.185,3.626,4.662,5.149,2.98,3.466ZM2.49,7.32.808,5.638l.516-.516L3.006,6.8Zm.874-1.778a1.325,1.325,0,0,0-.275.4l-.9-.9a1.349,1.349,0,0,0,.7-.724l.929.929A1.316,1.316,0,0,0,3.364,5.542Zm2.157-.306.692-.692L9.166,7.5l-.692.692Zm-1.053,9.6a.6.6,0,0,1-.846-.846L9.791,7.819a5.419,5.419,0,0,0,1.5-2.859l.245-1.328,3.812,1.411a.335.335,0,0,0,.43-.2l.688-1.854a2.241,2.241,0,0,1-.433,2.554,1.9,1.9,0,0,1-.4.316c-.078.044-.7.316-.7.316l-2.15.9A5.416,5.416,0,0,0,11.051,8.25Zm10.773.124L10.266,9.981l.692-.692,4.976,4.975Z" fill="#fff"/>
  </g>
</svg>
