<svg version="1.1" id="Layer_1" xmlns="http://www.w3.org/2000/svg" xmlns:xlink="http://www.w3.org/1999/xlink" x="0px" y="0px"
	 width="100%" viewBox="0 0 1024 1024" enable-background="new 0 0 1024 1024" xml:space="preserve">
<path fill="#000000" opacity="1.000000" stroke="none" 
	d="
M644.058960,729.834900 
	C629.863037,737.843445 614.371460,736.788940 599.388306,737.805725 
	C589.065552,738.506104 578.792480,739.158752 568.643372,741.177917 
	C564.175415,742.066772 559.721802,742.102112 555.221924,741.544128 
	C546.418823,740.452759 537.561646,740.581787 528.776489,741.328003 
	C520.432800,742.036682 512.133789,742.502747 503.888977,741.010193 
	C486.152069,737.799377 468.043030,738.103577 450.282166,735.130798 
	C445.505615,734.331360 440.849609,733.375671 436.248047,731.750854 
	C419.804291,725.944763 402.655609,723.649841 385.383636,722.055359 
	C367.518585,720.406189 350.163727,717.510376 334.843903,706.814148 
	C328.118103,702.118164 319.224182,701.113220 312.575562,695.759399 
	C304.844147,689.533691 296.115448,685.178406 286.767670,681.824158 
	C272.853912,676.831604 262.082764,667.235229 252.997238,656.074158 
	C246.540802,648.142700 243.726013,638.078064 241.170944,628.196045 
	C237.659439,614.614868 235.368042,600.514221 234.972412,586.810181 
	C234.585159,573.395264 228.864136,561.721191 227.487946,548.872375 
	C226.719223,541.695190 221.805969,535.496643 221.484848,527.870728 
	C221.306381,523.632629 221.109055,519.451599 222.483368,515.550232 
	C226.844391,503.170624 227.628662,490.143951 229.942856,477.391602 
	C232.442200,463.618927 238.573181,451.200500 245.722351,439.380859 
	C248.118408,435.419464 252.993195,432.987610 257.767303,433.182404 
	C275.778320,433.917297 292.556030,427.757019 309.836761,424.455078 
	C315.228363,423.424866 320.502716,421.795044 325.872925,420.634766 
	C330.142975,419.712219 332.409576,416.817413 334.928101,413.484528 
	C343.098450,402.672089 349.385956,390.807892 355.455078,378.796112 
	C363.784241,362.311310 377.329712,357.443695 394.566956,361.453186 
	C408.782532,364.759888 423.202240,365.866028 437.686890,365.899078 
	C450.250397,365.927734 462.466095,364.090546 473.630890,357.339233 
	C479.726196,353.653442 486.486572,351.053650 492.997009,348.073334 
	C497.000427,346.240631 501.066650,346.941650 505.224182,347.859406 
	C522.129883,351.591492 537.649353,358.726837 553.029846,366.427582 
	C560.578369,370.207031 568.944702,372.129303 576.424866,376.378723 
	C581.803711,379.434418 588.318298,379.881256 594.446655,379.792206 
	C609.973450,379.566589 625.366882,381.533661 640.841187,382.133789 
	C652.842163,382.599243 663.743774,387.794983 674.370483,393.028870 
	C685.006104,398.267181 694.682678,405.028992 704.049500,412.331207 
	C710.635193,417.465332 718.161438,420.940979 726.676819,422.194794 
	C745.905273,425.026062 759.978088,436.545013 772.390808,450.433044 
	C775.244934,453.626465 776.614990,457.928375 777.622559,462.217194 
	C781.766113,479.853607 790.038635,495.679871 800.579712,510.117096 
	C810.024841,523.053284 812.813171,537.734985 813.826599,552.849976 
	C814.937622,569.420593 812.513794,585.425659 805.415771,601.005005 
	C799.936096,613.032043 797.709351,626.467285 792.873230,638.908264 
	C787.166687,653.588440 777.030212,663.985718 763.895569,672.661499 
	C754.193298,679.070068 742.882996,680.828857 733.060608,686.533447 
	C723.852356,691.881287 714.596802,697.763184 708.895630,706.257080 
	C701.219666,717.693054 690.288879,721.335205 678.408997,723.923645 
	C667.197754,726.366394 655.771606,727.822815 644.058960,729.834900 
M407.501129,580.016663 
	C482.480682,580.032776 557.460205,580.049255 632.439758,580.063538 
	C635.605164,580.064148 638.706055,580.035767 641.656738,578.429321 
	C650.579163,573.571838 659.509094,568.716553 668.588623,564.164612 
	C672.208313,562.349915 673.695129,559.954895 673.660767,555.945190 
	C673.526611,540.283997 673.642578,524.620850 673.585205,508.958710 
	C673.560852,502.311859 673.470764,502.298218 666.941406,502.297729 
	C621.620544,502.294556 576.299316,502.222748 530.979187,502.402863 
	C525.876953,502.423157 524.420227,500.868805 524.528381,495.852356 
	C524.837341,481.529633 524.660583,467.195923 524.631531,452.866638 
	C524.618286,446.329224 524.430481,446.084320 517.907166,446.082855 
	C476.085449,446.073456 434.263763,446.114960 392.442047,446.129822 
	C389.747650,446.130768 387.198608,446.463379 384.731628,447.771210 
	C375.461365,452.685669 366.166321,457.557861 356.788727,462.262878 
	C353.683868,463.820648 352.276978,466.077515 352.470642,469.404602 
	C353.410553,485.552673 352.746246,501.716095 352.899811,517.871216 
	C352.943451,522.462280 354.699158,523.958679 359.195160,523.791809 
	C367.182281,523.495422 375.193512,523.872314 383.183197,523.613525 
	C387.398895,523.476929 388.551086,525.019775 388.485413,529.129639 
	C388.251221,543.788574 388.376740,558.453369 388.382446,573.115906 
	C388.385010,579.695251 388.683197,580.009949 395.005493,580.052979 
	C398.837433,580.079041 402.669891,580.030151 407.501129,580.016663 
z"/>
<path fill="#000000" opacity="1.000000" stroke="none" 
	d="
M637.000488,507.578064 
	C646.165710,507.602325 654.831909,507.704895 663.495972,507.611450 
	C666.842529,507.575348 668.340271,508.779572 668.315979,512.261658 
	C668.221863,525.759033 668.219543,539.257812 668.318787,552.755066 
	C668.344910,556.318665 666.674072,557.344055 663.414185,557.321289 
	C651.916443,557.240967 640.417664,557.308289 628.919312,557.308716 
	C564.095032,557.311218 499.270782,557.312500 434.446533,557.308716 
	C426.871399,557.308228 426.855896,557.292542 426.847626,549.922119 
	C426.834930,538.590393 426.832214,527.258667 426.851379,515.926941 
	C426.866516,506.977234 426.884033,506.962402 436.080139,507.008087 
	C473.068359,507.191895 510.056305,507.444000 547.044739,507.557434 
	C576.863098,507.648865 606.682007,507.577332 637.000488,507.578064 
M610.335571,534.494873 
	C610.335571,538.161194 610.525635,541.840149 610.284119,545.490479 
	C610.023010,549.437256 611.605774,550.762634 615.499023,550.702209 
	C626.828552,550.526367 638.162598,550.666748 649.494751,550.627319 
	C651.726624,550.619568 654.453125,551.239319 654.627808,547.590759 
	C654.816956,543.638062 651.947815,544.016541 649.491272,544.006775 
	C640.992310,543.972961 632.493042,544.047302 623.994019,544.024536 
	C621.369812,544.017456 618.354065,544.481445 618.212952,540.401062 
	C618.074890,536.409790 620.577576,535.838013 623.779602,535.880615 
	C629.611328,535.958191 635.444885,535.915955 641.277588,535.896912 
	C643.494324,535.889648 645.746094,535.970703 645.835999,532.735962 
	C645.935913,529.140930 643.496582,529.330444 641.088867,529.335754 
	C635.256104,529.348572 629.422791,529.387634 623.590759,529.324341 
	C621.206299,529.298462 618.268555,529.993652 618.217712,526.008606 
	C618.166199,521.970337 620.710022,521.640686 623.872803,521.675354 
	C632.704224,521.771973 641.537476,521.722900 650.369812,521.694275 
	C652.361938,521.687805 654.518372,521.898132 654.626770,518.856018 
	C654.735413,515.808105 652.918335,515.266296 650.459534,515.270813 
	C638.460815,515.292847 626.461975,515.319458 614.463440,515.273743 
	C611.502014,515.262451 610.244324,516.541870 610.307922,519.500305 
	C610.408203,524.164368 610.334839,528.832153 610.335571,534.494873 
M476.125214,539.594543 
	C475.948212,543.874207 472.836884,544.043823 469.733459,544.063416 
	C460.915985,544.119141 452.098083,544.098511 443.280426,544.130859 
	C441.063934,544.138977 439.303345,544.774231 439.273529,547.460999 
	C439.246918,549.858887 440.656952,550.633484 442.795776,550.629944 
	C453.110931,550.612854 463.435028,550.857544 473.737885,550.495178 
	C479.996185,550.275024 483.709717,546.076721 483.891632,540.302368 
	C484.096741,533.792542 479.896576,529.663208 472.387115,529.438110 
	C465.405090,529.228699 458.412537,529.380737 451.424744,529.349915 
	C448.751587,529.338135 445.699799,529.683655 445.713348,525.667786 
	C445.726105,521.873779 448.553802,521.707581 451.346069,521.703613 
	C460.164185,521.691162 468.982422,521.722839 477.800323,521.679504 
	C479.894104,521.669250 482.410431,522.115112 482.572968,518.811707 
	C482.744354,515.328369 480.313568,515.290588 477.865753,515.290527 
	C468.049408,515.290283 458.231812,515.195007 448.417145,515.322876 
	C441.823547,515.408691 437.360443,519.768005 437.382477,525.713501 
	C437.404449,531.629333 441.800781,535.697144 448.605865,535.827393 
	C455.591522,535.961182 462.581207,535.871521 469.569000,535.908813 
	C472.099670,535.922302 474.649445,535.976929 476.125214,539.594543 
M527.109863,537.277405 
	C522.133728,543.421448 515.326355,545.449097 508.033173,542.959534 
	C501.876099,540.857788 498.702423,535.660217 498.649658,527.568848 
	C498.633423,525.075134 498.598724,522.580139 498.656891,520.087769 
	C498.722504,517.277893 498.231567,515.234619 494.644318,515.249146 
	C491.288757,515.262695 490.263916,516.855896 490.375793,519.880920 
	C490.474060,522.537537 490.293823,525.206299 490.436584,527.859009 
	C490.765076,533.962769 491.974823,539.827515 496.852234,544.074768 
	C505.037964,551.203003 514.446411,552.453186 524.331421,548.594177 
	C533.876831,544.867798 537.501587,537.012329 537.634033,527.209595 
	C537.665466,524.882507 537.546082,522.550354 537.656006,520.228088 
	C537.799377,517.198059 537.364502,515.104004 533.450134,515.186279 
	C529.523621,515.268860 529.426636,517.545105 529.307495,520.453857 
	C529.085938,525.861938 530.476501,531.479492 527.109863,537.277405 
M603.418518,516.960388 
	C602.943909,515.962769 602.107605,515.488037 601.050354,515.401611 
	C600.057983,515.320435 599.060303,515.267151 598.064819,515.266174 
	C587.095642,515.255432 576.126526,515.250305 565.157349,515.260986 
	C562.659363,515.263367 559.924377,514.907959 559.851562,518.725891 
	C559.775696,522.701477 562.763428,521.514954 564.830200,521.650757 
	C567.312866,521.813965 569.825439,521.856995 572.304016,521.671326 
	C576.273865,521.373962 577.534912,523.173584 577.427490,526.972595 
	C577.244568,533.447815 577.486511,539.933838 577.433960,546.414368 
	C577.408447,549.565613 578.646362,550.787415 581.909790,550.693970 
	C585.198242,550.599792 585.734375,548.884399 585.710815,546.212219 
	C585.655273,539.897217 585.933411,533.569946 585.626587,527.269592 
	C585.408081,522.782104 587.195679,521.292114 591.444214,521.652344 
	C594.248962,521.890076 597.091797,521.644348 599.916077,521.695679 
	C602.677673,521.745850 603.930420,520.499695 603.418518,516.960388 
M552.859497,529.507996 
	C552.868103,526.344360 552.826660,523.179504 552.900330,520.017395 
	C552.965942,517.197998 552.510803,515.157654 548.888062,515.220032 
	C545.459351,515.279175 545.255310,517.302917 545.266602,519.847656 
	C545.305664,528.672424 545.312622,537.497498 545.289795,546.322266 
	C545.283752,548.667542 545.404053,550.627319 548.608276,550.647644 
	C551.596802,550.666565 552.860962,549.422485 552.834900,546.489075 
	C552.787537,541.161560 552.844727,535.833191 552.859497,529.507996 
z"/>
<path fill="#000000" opacity="1.000000" stroke="none" 
	d="
M398.132690,450.762939 
	C436.230072,450.763428 473.844757,450.763458 511.459473,450.766235 
	C519.311523,450.766815 519.320618,450.771484 519.326416,458.834229 
	C519.335144,470.984131 519.196289,483.136322 519.402100,495.282745 
	C519.474670,499.569092 518.038635,501.179657 513.675293,501.168091 
	C475.062286,501.065704 436.448761,501.080017 397.835602,501.162689 
	C393.495941,501.171967 391.503815,499.828461 391.586700,495.120880 
	C391.812256,482.309235 391.839203,469.487213 391.566589,456.677338 
	C391.466705,451.983978 393.187073,450.235199 398.132690,450.762939 
M420.797607,478.651459 
	C427.622955,478.673126 434.448456,478.679016 441.273621,478.725311 
	C443.598236,478.741058 445.130402,479.818176 445.193604,482.281738 
	C445.255249,484.684357 443.873505,485.960938 441.559784,486.194672 
	C440.239105,486.328094 438.900208,486.309540 437.569489,486.310120 
	C429.245667,486.313721 420.921783,486.292633 412.597992,486.305603 
	C410.580414,486.308746 408.387177,486.147522 408.394104,489.170624 
	C408.400330,491.876190 410.336761,492.589905 412.414642,492.604401 
	C423.066437,492.678680 433.729584,492.886200 444.367340,492.482727 
	C449.822174,492.275787 453.743988,487.112274 453.561676,481.800873 
	C453.388367,476.751465 449.364960,472.546448 443.817780,472.253448 
	C437.840118,471.937714 431.837158,472.107086 425.845367,472.049652 
	C423.516663,472.027313 421.175476,472.099426 418.863373,471.881104 
	C416.447144,471.652954 414.744873,470.377136 414.851105,467.703033 
	C414.948822,465.243378 416.724762,464.308777 418.865295,464.040924 
	C420.344177,463.855835 421.854980,463.893768 423.351746,463.888702 
	C431.508942,463.861084 439.666199,463.843048 447.823456,463.840118 
	C450.090637,463.839325 451.724670,463.275604 451.708160,460.514038 
	C451.693512,458.067719 450.392059,457.372620 448.225006,457.378510 
	C437.903778,457.406586 427.570923,457.098663 417.264832,457.496063 
	C409.199280,457.807068 404.440613,465.555969 407.752167,472.398499 
	C410.161224,477.376221 414.759186,478.650909 420.797607,478.651459 
M493.510559,463.895782 
	C495.505951,463.877380 497.501312,463.848297 499.496735,463.843384 
	C501.759186,463.837830 502.836792,462.767090 502.768646,460.459167 
	C502.708649,458.426300 501.791656,457.369598 499.726990,457.374207 
	C487.088623,457.402435 474.450226,457.427429 461.811859,457.458771 
	C459.350433,457.464874 458.788727,459.152588 458.713104,461.132263 
	C458.623779,463.471283 460.320251,463.777130 462.079712,463.816711 
	C465.071930,463.884064 468.076141,464.038330 471.056610,463.853790 
	C475.219116,463.596100 476.590179,465.411743 476.454987,469.466095 
	C476.244629,475.774292 476.379822,482.102020 476.604095,488.413086 
	C476.707062,491.310242 478.366211,492.904633 481.538574,492.682251 
	C484.675354,492.462341 484.704285,490.273804 484.722076,488.053253 
	C484.766022,482.565521 484.766663,477.077423 484.773651,471.589447 
	C484.783325,463.965179 484.779022,463.965179 493.510559,463.895782 
z"/>
<path fill="#000000" opacity="1.000000" stroke="none" 
	d="
M357.674927,474.168518 
	C356.882965,469.066711 358.932983,466.276245 363.082672,464.309631 
	C368.631378,461.679993 373.955261,458.579437 379.422699,455.772644 
	C380.992096,454.966980 382.528198,453.735474 384.540802,454.369659 
	C385.701782,455.829651 385.323822,457.552826 385.328735,459.160736 
	C385.367920,471.955383 385.350159,484.750183 385.355225,497.544952 
	C385.356079,499.721313 385.554382,502.086578 383.302734,503.316040 
	C375.339417,507.664276 367.311310,511.893799 357.675232,517.040222 
	C357.675232,501.925568 357.675232,488.284882 357.674927,474.168518 
M365.477509,482.181946 
	C365.477509,490.555695 365.477509,498.929474 365.477509,507.713440 
	C370.020599,506.781128 372.810852,504.529938 376.017914,503.293793 
	C379.819550,501.828461 381.156128,499.304596 381.052277,495.227081 
	C380.806641,485.582031 381.020355,475.925903 380.958710,466.274872 
	C380.946594,464.376587 381.545380,462.237762 379.331360,460.385010 
	C374.025879,462.212646 369.097137,465.135834 363.684967,468.120819 
	C366.263977,472.517853 365.782135,477.001556 365.477509,482.181946 
z"/>
<path fill="#000000" opacity="1.000000" stroke="none" 
	d="
M401.990051,554.085938 
	C407.549652,541.799683 412.953156,529.858154 418.388611,517.931213 
	C418.567963,517.537720 419.072296,517.292297 419.995819,516.469177 
	C421.093353,523.327820 420.340729,529.732361 420.559875,536.067322 
	C420.777771,542.364990 420.443787,548.680664 420.401306,554.988831 
	C420.387451,557.049133 420.289185,558.999329 418.182709,560.136597 
	C411.319794,563.842102 404.470459,567.572998 397.587250,571.240356 
	C396.924103,571.593689 396.069366,571.975708 394.879761,570.997803 
	C396.293610,565.227905 399.629578,560.049194 401.990051,554.085938 
z"/>
</svg>