<?xml version="1.0" standalone="no"?>
<!DOCTYPE svg PUBLIC "-//W3C//DTD SVG 20010904//EN"
 "http://www.w3.org/TR/2001/REC-SVG-20010904/DTD/svg10.dtd">
<svg version="1.0" xmlns="http://www.w3.org/2000/svg"
 width="1716.000000pt" height="1080.000000pt" viewBox="0 0 1716.000000 1080.000000"
 preserveAspectRatio="xMidYMid meet">

<g transform="translate(0.000000,1080.000000) scale(0.100000,-0.100000)"
fill="#000000" stroke="none">
<path d="M3005 8199 c-49 -3 -103 -11 -119 -18 -39 -16 -1477 -765 -1536 -800
-24 -14 -53 -42 -65 -61 -20 -35 -20 -42 -20 -1440 l0 -1405 783 -3 c430 -1
783 -3 784 -5 2 -1 5 -550 8 -1219 5 -1151 6 -1218 23 -1235 17 -17 255 -18
5565 -21 4929 -2 5552 0 5599 13 28 8 226 109 440 224 213 114 548 292 743
396 195 103 367 196 383 207 15 11 35 34 44 51 16 30 17 133 16 1427 -2 1255
-3 1396 -18 1406 -11 9 -822 10 -3248 6 -2462 -4 -3238 -2 -3255 7 l-22 12 0
1224 c0 725 -4 1226 -9 1229 -12 8 -5981 13 -6096 5z m5975 -148 c7 -13 10
-416 10 -1235 l0 -1216 3268 -2 3267 -3 2 -1300 c3 -1492 14 -1336 -99 -1398
-103 -56 -1297 -689 -1368 -724 -36 -18 -89 -38 -119 -43 -72 -13 -10930 -14
-10951 0 -13 8 -16 160 -20 1237 l-5 1228 -782 3 -781 2 -4 1283 c-2 705 0
1297 4 1316 4 19 19 47 35 62 15 15 280 158 588 319 308 161 625 326 705 368
80 42 170 86 200 99 l55 23 2992 0 c2948 0 2992 0 3003 -19z"/>
<path d="M3173 7800 l-23 -9 0 -1045 c0 -1013 1 -1044 19 -1067 l19 -24 2760
-3 2759 -2 6 91 c4 51 7 531 7 1069 0 746 -3 979 -12 988 -15 15 -5499 16
-5535 2z m2627 -400 l0 -170 -777 -2 c-745 -3 -779 -4 -806 -22 -38 -26 -57
-66 -57 -123 0 -63 26 -114 70 -135 32 -17 83 -18 620 -18 625 0 656 -2 753
-51 172 -87 261 -234 261 -429 0 -230 -119 -391 -344 -466 -51 -17 -110 -19
-872 -22 l-818 -3 0 170 0 171 785 2 785 3 32 32 c28 28 33 40 36 96 5 71 -12
117 -51 139 -17 10 -163 14 -632 18 l-610 5 -80 28 c-214 75 -325 229 -325
452 0 153 42 257 142 352 83 78 173 118 296 133 37 4 410 8 830 9 l762 1 0
-170z m2240 0 l0 -170 -395 0 -395 0 0 -635 0 -635 -205 0 -205 0 0 635 0 635
-395 0 -395 0 0 170 0 170 995 0 995 0 0 -170z"/>
<path d="M2705 7644 c-351 -180 -1003 -529 -1022 -546 l-23 -21 0 -1049 c0
-964 1 -1048 16 -1048 9 0 220 107 468 239 248 131 493 260 543 286 105 55
127 75 140 125 10 41 5 2070 -5 2070 -4 0 -56 -25 -117 -56z m-15 -1054 c0
-666 -3 -926 -11 -944 -9 -19 -70 -55 -243 -144 -307 -159 -453 -232 -466
-232 -7 0 -10 265 -10 803 0 536 -4 815 -11 840 -7 26 -30 57 -71 97 l-61 58
49 25 c27 14 218 114 424 221 206 107 381 195 388 196 9 0 12 -190 12 -920z"/>
<path d="M4716 5315 c-15 -15 -16 -107 -14 -1065 2 -688 6 -1052 13 -1059 12
-12 10515 -19 10534 -7 8 5 11 280 11 1060 0 968 -1 1055 -17 1067 -13 12
-834 14 -5263 17 -4839 3 -5249 2 -5264 -13z m2434 -455 l0 -170 -776 0 c-713
0 -778 -1 -805 -17 -84 -50 -77 -216 11 -260 19 -10 161 -13 605 -13 627 0
658 -3 769 -55 64 -30 144 -99 186 -160 95 -138 98 -372 7 -527 -31 -53 -106
-125 -168 -161 -25 -15 -81 -36 -124 -47 -75 -19 -111 -20 -877 -20 l-798 0 0
170 0 170 778 0 c841 1 805 -2 843 56 23 36 26 122 4 168 -33 68 -10 66 -652
66 -631 0 -658 2 -777 58 -73 35 -157 108 -192 169 -88 149 -88 367 -1 516 35
60 125 140 192 171 114 55 107 54 973 55 l802 1 0 -170z m700 -187 c0 -409 5
-448 71 -582 55 -112 139 -195 252 -251 102 -50 192 -70 325 -70 289 0 497
118 602 342 54 116 60 166 60 561 l0 357 200 0 200 0 0 -307 c0 -339 -10 -479
-41 -598 -70 -267 -262 -490 -516 -600 -251 -109 -573 -125 -862 -45 -279 78
-511 281 -617 540 -58 143 -66 210 -71 628 l-5 382 201 0 201 0 0 -357z m2390
-443 l0 -800 -195 0 -195 0 0 800 0 800 195 0 195 0 0 -800z m2240 630 l0
-170 -400 0 -400 0 0 -630 0 -630 -205 0 -205 0 0 630 0 630 -392 2 -393 3 -3
168 -2 167 1000 0 1000 0 0 -170z m2230 0 l0 -170 -800 0 -800 0 0 -145 0
-145 610 0 610 0 0 -170 0 -170 -610 0 -610 0 0 -145 0 -145 800 0 800 0 0
-170 0 -170 -995 0 -995 0 0 800 0 800 995 0 995 0 0 -170z"/>
<path d="M4347 4948 c-8 -18 -253 -567 -546 -1220 -292 -652 -531 -1191 -531
-1197 0 -6 7 -11 15 -11 9 0 160 78 338 173 177 96 410 220 517 277 107 57
205 112 218 123 l22 20 0 934 c0 607 -3 933 -10 933 -5 0 -16 -15 -23 -32z"/>
</g>
</svg>
